<svg width="153" height="41" viewBox="0 0 153 41" fill="none" xmlns="http://www.w3.org/2000/svg">
<path d="M24.8626 26.0444H14.7257V30.7508C14.7257 36.2841 19.2114 40.7701 24.745 40.7701H24.8629H24.9807C30.5143 40.7701 35 36.2844 35 30.7508V26.0444H24.8626Z" fill="#41399A"/>
<path opacity="0.54" d="M16.7824 30.7508V26.0444H14.7254V30.7508C14.7254 36.2841 19.2111 40.7701 24.7447 40.7701H24.8625H24.9804C25.2875 40.7701 25.591 40.754 25.891 40.727C20.7847 40.2665 16.7824 35.9771 16.7824 30.7508Z" fill="#4F43BF"/>
<path d="M14.7254 30.7508V26.0444V10.0193C14.7254 0 14.7254 0 4.70639 0H0V26.0444V30.7508C0 36.2841 4.48571 40.7701 10.0193 40.7701H14.7254H24.7447C19.2114 40.7699 14.7254 36.2841 14.7254 30.7508Z" fill="#5A50D8"/>
<path d="M139.667 34.3851L143.732 25.5493L144.44 24.4149L148.874 13.0418H153L143.609 34.3851H139.667ZM143.147 28.1164L136.773 13.0418H140.991L146.318 26.7134L143.147 28.1164Z" fill="#020202"/>
<path d="M128.703 28.2657V11.6388C128.703 9.96716 129.175 8.69353 130.12 7.81791C131.085 6.92239 132.521 6.47463 134.431 6.47463C134.862 6.47463 135.221 6.49453 135.508 6.53433C135.796 6.57413 136.073 6.63383 136.34 6.71343V9.63881C136.196 9.57911 136.011 9.5393 135.785 9.5194C135.56 9.4796 135.303 9.4597 135.016 9.4597C134.195 9.4597 133.579 9.65871 133.168 10.0567C132.778 10.4348 132.583 10.992 132.583 11.7284V28.2657H128.703ZM125.871 15.997V13.0418H136.001V15.997H125.871Z" fill="#020202"/>
<path d="M119.87 28.2657V13.0418H123.75V28.2657H119.87ZM119.685 10.5343V6.38507H123.903V10.5343H119.685Z" fill="#020202"/>
<path d="M101.383 28.2657V6.77314H105.262V28.2657H101.383ZM112.406 28.2657V18.6537C112.406 17.7184 112.16 17.0119 111.667 16.5343C111.174 16.0567 110.456 15.8179 109.512 15.8179C108.69 15.8179 107.951 15.997 107.295 16.3552C106.658 16.7134 106.155 17.2109 105.786 17.8478C105.437 18.4846 105.262 19.2209 105.262 20.0567L104.862 16.4149C105.396 15.3005 106.176 14.4149 107.202 13.7582C108.229 13.0816 109.46 12.7433 110.897 12.7433C112.601 12.7433 113.925 13.2109 114.869 14.1463C115.834 15.0816 116.317 16.3254 116.317 17.8776V28.2657H112.406Z" fill="#020202"/>
<path d="M92.4179 28.5642C90.242 28.5642 88.5074 28.1264 87.2142 27.2507C85.9209 26.3552 85.2127 25.1214 85.0896 23.5493H88.6306C88.7332 24.3254 89.113 24.9124 89.7699 25.3105C90.4268 25.7085 91.3095 25.9075 92.4179 25.9075C93.4238 25.9075 94.1731 25.7582 94.6657 25.4597C95.1789 25.1413 95.4355 24.6935 95.4355 24.1164C95.4355 23.6985 95.2918 23.3602 95.0044 23.1015C94.717 22.8229 94.1731 22.594 93.3725 22.4149L90.8476 21.8478C89.1233 21.4896 87.8403 20.9323 86.9986 20.1761C86.1775 19.4 85.767 18.4348 85.767 17.2806C85.767 15.8677 86.3212 14.7632 87.4297 13.9672C88.5587 13.1512 90.1086 12.7433 92.0792 12.7433C94.0294 12.7433 95.5895 13.1512 96.7595 13.9672C97.9502 14.7632 98.607 15.8677 98.7302 17.2806H95.1892C95.0865 16.6637 94.7581 16.196 94.2039 15.8776C93.6701 15.5592 92.9311 15.4 91.9869 15.4C91.1042 15.4 90.437 15.5393 89.9854 15.8179C89.5338 16.0766 89.308 16.4647 89.308 16.9821C89.308 17.3801 89.4825 17.7184 89.8315 17.997C90.1804 18.2557 90.7655 18.4846 91.5866 18.6836L94.2962 19.2806C95.8358 19.6189 96.9956 20.206 97.7757 21.0418C98.5762 21.8776 98.9765 22.8627 98.9765 23.997C98.9765 25.4498 98.4018 26.5741 97.2522 27.3702C96.1027 28.1662 94.4912 28.5642 92.4179 28.5642Z" fill="#020202"/>
<path d="M79.5825 28.2657C79.4798 27.8677 79.3977 27.4299 79.3361 26.9522C79.2951 26.4746 79.2746 25.8975 79.2746 25.2209H79.1514V17.997C79.1514 17.201 78.9153 16.604 78.4432 16.206C77.9916 15.7881 77.2936 15.5791 76.3494 15.5791C75.4256 15.5791 74.6866 15.7483 74.1324 16.0866C73.5987 16.405 73.2702 16.8726 73.147 17.4896H69.4213C69.5855 16.0766 70.2834 14.9323 71.5151 14.0567C72.7468 13.1811 74.3992 12.7433 76.4725 12.7433C78.6279 12.7433 80.2599 13.2209 81.3684 14.1761C82.4769 15.1114 83.0311 16.4945 83.0311 18.3254V25.2209C83.0311 25.6985 83.0619 26.1861 83.1235 26.6836C83.2056 27.1811 83.3185 27.7085 83.4622 28.2657H79.5825ZM74.1324 28.5642C72.5517 28.5642 71.2893 28.1861 70.345 27.4299C69.4213 26.6537 68.9594 25.6189 68.9594 24.3254C68.9594 22.9323 69.4829 21.8279 70.5298 21.0119C71.5767 20.196 73.0547 19.6488 74.9637 19.3702L79.8596 18.6537V21.0418L75.6104 21.6687C74.6866 21.808 73.9887 22.0567 73.5165 22.4149C73.0649 22.7731 72.8391 23.2707 72.8391 23.9075C72.8391 24.4846 73.0547 24.9323 73.4857 25.2507C73.9168 25.5493 74.5121 25.6985 75.2717 25.6985C76.3802 25.6985 77.3039 25.4299 78.0429 24.8925C78.7819 24.3552 79.1514 23.6985 79.1514 22.9224L79.5825 25.2209C79.1719 26.3154 78.4945 27.1512 77.5502 27.7284C76.6265 28.2856 75.4872 28.5642 74.1324 28.5642Z" fill="#5A50D8"/>
<path d="M49.4325 28.2657V25.1612H55.1597C56.843 25.1612 58.28 24.8328 59.4706 24.1761C60.6612 23.5194 61.5644 22.604 62.1802 21.4299C62.8166 20.2557 63.1348 18.9124 63.1348 17.4C63.1348 15.9075 62.8166 14.594 62.1802 13.4597C61.5644 12.3254 60.6612 11.4498 59.4706 10.8328C58.3005 10.196 56.8635 9.87761 55.1597 9.87761H49.4941V6.77314H55.1597C57.582 6.77314 59.6964 7.21095 61.5028 8.08657C63.3092 8.96219 64.7051 10.206 65.6904 11.8179C66.6963 13.41 67.1992 15.2906 67.1992 17.4597C67.1992 19.6289 66.6963 21.5294 65.6904 23.1612C64.6846 24.7731 63.2784 26.0269 61.472 26.9224C59.6861 27.8179 57.5923 28.2657 55.1905 28.2657H49.4325ZM47 28.2657V6.77314H51.0029V28.2657H47Z" fill="#5A50D8"/>
</svg>
